# AST/ASF file generated using VICON BodyLanguage
# -----------------------------------------------
:version 1.10
:name VICON
:units
  mass 1.0
  length 0.45
  angle deg
:documentation
   .ast/.asf automatically generated from VICON data using
   VICON BodyBuilder and BodyLanguage model FoxedUp or BRILLIANT.MOD
:root
   order TX TY TZ RX RY RZ
   axis XYZ
   position 0 0 0  
   orientation 0 0 0 
:bonedata
  begin
     id 1 
     name lhipjoint
     direction 0.734343 -0.627749 0.258209 
     length 2.5437 
     axis 0 0 0  XYZ
  end
  begin
     id 2 
     name lfemur
     direction 0.34202 -0.939693 0  
     length 6.7391  
     axis 0 0 20  XYZ
    dof rx ry rz
    limits (-160.0 20.0)
           (-70.0 70.0)
           (-60.0 70.0)
  end
  begin
     id 3 
     name ltibia
     direction 0.34202 -0.939693 0   
     length 7.21536   
     axis 0 0 20   XYZ
    dof rx
    limits (-10.0 170.0)
  end
  begin
     id 4 
     name lfoot
     direction 0.0489572 -0.134509 0.989702   
     length 1.61313   
     axis -90 7.62852e-016 20   XYZ
    dof rx rz
    limits (-45.0 90.0)
           (-70.0 20.0)
  end
  begin
     id 5 
     name ltoes
     direction 1.53451e-011 -4.21692e-011 1   
     length 0.823104   
     axis -90 7.62852e-016 20   XYZ
    dof rx
    limits (-90.0 20.0)
  end
  begin
     id 6 
     name rhipjoint
     direction -0.746398 -0.615468 0.253157   
     length 2.59446  
     axis 0 0 0  XYZ 
  end
  begin
     id 7 
     name rfemur
     direction -0.34202 -0.939693 0   
     length 6.7075   
     axis 0 0 -20   XYZ
    dof rx ry rz
    limits (-160.0 20.0)
           (-70.0 70.0)
           (-70.0 60.0)
  end
  begin
     id 8 
     name rtibia
     direction -0.34202 -0.939693 0   
     length 7.27262   
     axis 0 0 -20   XYZ
    dof rx
    limits (-10.0 170.0)
 end
 begin
     id 9 
     name rfoot
     direction -0.0455203 -0.125066 0.991104   
     length 1.91095  
     axis -90 -7.62852e-016 -20   XYZ
    dof rx rz
    limits (-45.0 90.0)
           (-20.0 70.0)
  end
  begin
     id 10 
     name rtoes
     direction -1.53601e-011 -4.21913e-011 1   
     length 0.969037   
     axis -90 -7.62852e-016 -20   XYZ
    dof rx
    limits (-90.0 20.0)
  end
  begin
     id 11 
     name lowerback
     direction 0.0181546 0.999122 -0.0377542   
     length 1.99916   
     axis 0 0 0   XYZ
    dof rx ry rz
    limits (-20.0 45.0)
           (-30.0 30.0)
           (-30.0 30.0)
  end
  begin
     id 12 
     name upperback
     direction 0.0203486 0.99589 0.0882534   
     length 1.951   
     axis 0 0 0   XYZ
    dof rx ry rz
    limits (-20.0 45.0)
           (-30.0 30.0)
           (-30.0 30.0)
  end
  begin
     id 13 
     name thorax
     direction 0.0131685 0.994241 0.106355   
     length 1.97461   
     axis 0 0 0   XYZ
    dof rx ry rz
    limits (-20.0 45.0)
           (-30.0 30.0)
           (-30.0 30.0)
  end
  begin
     id 14 
     name lowerneck
     direction -0.0281395 0.999325 0.023617   
     length 1.7959   
     axis 0 0 0   XYZ
    dof rx ry rz
    limits (-20.0 45.0)
           (-30.0 30.0)
           (-30.0 30.0)
  end
  begin
     id 15 
     name upperneck
     direction 0.0288721 0.991984 -0.123019   
     length 1.79917   
     axis 0 0 0   XYZ
    dof rx ry rz
    limits (-20.0 45.0)
           (-30.0 30.0)
           (-30.0 30.0)
  end
  begin
     id 16
     name head
     direction 0.0133797 0.998944 -0.0439492  
     length 1.80902  
     axis 0 0 0   XYZ
    dof rx ry rz
    limits (-20.0 45.0)
           (-30.0 30.0)
           (-30.0 30.0)
  end
  begin
     id 17 
     name lclavicle
     direction 0.919195 0.377107 0.113449  
     length 3.17815  
     axis 0 0 0   XYZ
    dof ry rz
    limits (-20.0 10.0)
           (0.0 20.0)
  end
  begin
     id 18 
     name lhumerus
     direction 1 -4.48959e-011 2.13129e-027   
     length 4.84137   
     axis 180 -30 -90   XYZ
    dof rx ry rz
    limits (-60.0 90.0)
           (-90.0 90.0)
           (-90.0 90.0)
  end
  begin
     id 19
     name lradius
     direction 1 -4.48957e-011 -6.30627e-028   
     length 3.2452   
     axis 180 -30 -90   XYZ
    dof rx
    limits (-10.0 170.0)
  end
  begin
     id 20
     name lwrist
     direction 1 -4.4901e-011 9.13299e-027   
     length 1.6226   
     axis -6.84618e-015 90 90   XYZ
    dof ry
    limits (-180.0 0.0)
 end
  begin
     id 21 
     name lhand
     direction 1 -4.48816e-011 1.82293e-026   
     length 0.521221   
     axis -1.16502e-014 90 90   XYZ
    dof rx rz
    limits (-90.0 90.0)
           (-45.0 45.0)
  end
  begin
     id 22 
     name lfingers
     direction 1 -4.49108e-011 3.65687e-026   
     length 0.420221   
     axis -2.33008e-014 90 90   XYZ
    dof rx
    limits (0.0 90.0)
  end
  begin
     id 23
     name lthumb
     direction 0.707107 -6.34943e-011 0.707107   
     length 0.603356   
     axis -90 45 5.69224e-014   XYZ
    dof rx rz
    limits (-45.0 45.0)
           (-45.0 45.0)
  end
  begin
     id 24 
     name rclavicle
     direction -0.90847 0.38596 0.160368   
     length 3.12973  
     axis 0 0 0   XYZ 
    dof ry rz
    limits (-10.0 20.0)
           (-20.0 0.0)
  end
  begin
     id 25 
     name rhumerus
     direction -1 -4.48974e-011 4.47268e-028  
     length 4.72284   
     axis 180 30 90   XYZ
    dof rx ry rz
    limits (-90.0 60.0)
           (-90.0 90.0)
           (-90.0 90.0)
  end
  begin
     id 26 
     name rradius
     direction -1 -4.48969e-011 3.43203e-027   
     length 3.23459   
     axis 180 30 90   XYZ
    dof rx
    limits (-10.0 170.0)
  end
  begin
     id 27 
     name rwrist
     direction -1 -4.48969e-011 9.12911e-027   
     length 1.6173   
     axis -6.84618e-015 -90 -90   XYZ
    dof ry
    limits (-180.0 0.0)
  end
  begin
     id 28
     name rhand
     direction -1 -4.49194e-011 1.83006e-026   
     length 0.307416   
     axis -1.16502e-014 -90 -90   XYZ
    dof rx rz
    limits (-90.0 90.0)
           (-45.0 45.0)
  end
  begin
     id 29
     name rfingers
     direction -1 -4.48423e-011 3.63103e-026   
     length 0.247847   
     axis -2.33008e-014 -90 -90   XYZ
    dof rx
    limits (0.0 90.0)
  end
  begin
     id 30
     name rthumb
     direction -0.707107 -6.34802e-011 0.707107   
     length 0.35586   
     axis -90 -45 -5.69224e-014   XYZ
    dof rx rz
    limits (-45.0 45.0)
           (-45.0 45.0)
  end
:hierarchy
  begin
    root lhipjoint rhipjoint lowerback
    lhipjoint lfemur
    lfemur ltibia
    ltibia lfoot
    lfoot ltoes
    rhipjoint rfemur
    rfemur rtibia
    rtibia rfoot
    rfoot rtoes
    lowerback upperback
    upperback thorax
    thorax lowerneck lclavicle rclavicle
    lowerneck upperneck
    upperneck head
    lclavicle lhumerus
    lhumerus lradius
    lradius lwrist
    lwrist lhand lthumb
    lhand lfingers
    rclavicle rhumerus
    rhumerus rradius
    rradius rwrist
    rwrist rhand rthumb
    rhand rfingers
  end

#!OML:ASF H:\Terrain\Patient Classification 1\Animal1\Tuesday\Animal1.ASF
:FULLY-SPECIFIED
:DEGREES
1418
root 26.9911 16.5885 0.0239877 18.7955 7.22786 -4.55105
lowerback 11.4222 -0.287391 -2.66047
upperback 3.23258 -0.757452 -2.35291
thorax -3.02279 -0.360372 -0.843241
lowerneck -3.28566 11.6456 -2.24721
upperneck -18.1608 16.4542 1.83215
head -5.33135 8.23779 0.280156
rclavicle 1.51076e-014 9.54166e-015
rhumerus -50.1609 -5.66143 -53.0784
rradius 104.569
rwrist 4.38146
rhand -7.20642 12.077
rfingers 7.12502
rthumb 18.6723 -17.0469
lclavicle 1.51076e-014 9.54166e-015
lhumerus 24.4325 3.59544 49.7987
lradius 113.809
lwrist -62.4255
lhand 15.7028 50.7993
lfingers 7.12502
lthumb 40.5128 75.8686
rfemur -20.2572 19.2411 10.6666
rtibia 15.5616
rfoot -13.6707 -35.1065
rtoes 10.1804
lfemur -44.3851 -9.07024 -0.984818
ltibia 32.7817
lfoot -11.7768 0.569958
ltoes -24.8962
1419
root 26.984 16.5879 0.0256066 18.7193 7.1805 -4.52943
lowerback 11.531 -0.250295 -2.90308
upperback 3.21641 -0.742373 -2.37511
thorax -3.09617 -0.351312 -0.731546
lowerneck -3.80151 11.6751 -2.48106
upperneck -17.2988 16.5383 2.4347
head -5.05063 8.27874 0.551256
rclavicle 2.8625e-014 -4.77083e-015
rhumerus -50.1695 -5.56989 -53.1711
rradius 104.512
rwrist 4.54685
rhand -6.93114 12.041
rfingers 7.12502
rthumb 18.937 -17.0572
lclavicle 2.8625e-014 -4.77083e-015
lhumerus 24.8639 3.33507 49.1309
lradius 113.731
lwrist -62.4071
lhand 15.1472 50.7408
lfingers 7.12502
lthumb 39.9902 75.9698
rfemur -20.3148 19.3703 10.7025
rtibia 15.7679
rfoot -12.2494 -35.5803
rtoes 8.68426
lfemur -44.2115 -8.9499 -1.0712
ltibia 32.5727
lfoot -11.6188 0.577081
ltoes -26.8914
1420
root 26.982 16.5967 0.0311737 18.6675 7.23173 -4.5948
lowerback 11.4571 -0.25333 -2.94639
upperback 3.31318 -0.743176 -2.35803
thorax -2.9539 -0.353327 -0.689823
lowerneck -5.56761 11.6286 -3.43991
upperneck -15.5153 16.6071 3.91523
head -4.41952 8.35024 1.29288
rclavicle 1.03368e-014 2.54444e-014
rhumerus -49.9658 -5.59581 -53.2513
rradius 104.381
rwrist 4.66935
rhand -7.19305 12.0728
rfingers 7.12502
rthumb 18.6851 -17.0498
lclavicle 1.03368e-014 2.54444e-014
lhumerus 25.4714 3.19261 48.4589
lradius 113.627
lwrist -62.5169
lhand 15.0444 50.8226
lfingers 7.12502
lthumb 39.8935 76.0807
rfemur -20.39 19.4897 10.8222
rtibia 15.8537
rfoot -9.00952 -36.4346
rtoes 5.47211
lfemur -44.0788 -8.87867 -1.07094
ltibia 32.4322
lfoot -11.632 0.547672
ltoes -26.9513
1421
root 26.9852 16.6067 0.0337017 18.6356 7.34493 -4.70735
lowerback 11.3757 -0.294508 -2.83175
upperback 3.42267 -0.775288 -2.32965
thorax -2.79622 -0.371363 -0.720997
lowerneck -3.69599 11.7141 -2.80695
upperneck -17.3701 16.6667 2.85492
head -5.1566 8.33616 0.701038
rclavicle 2.8625e-014 1.90833e-014
rhumerus -49.7601 -5.60159 -53.2622
rradius 104.32
rwrist 4.56084
rhand -6.94675 12.0324
rfingers 7.12502
rthumb 18.922 -17.0672
lclavicle 2.8625e-014 1.90833e-014
lhumerus 26.1574 3.06667 47.6944
lradius 113.581
lwrist -62.8957
lhand 15.1363 50.8968
lfingers 7.12502
lthumb 39.98 76.1289
rfemur -20.4876 19.7911 10.8671
rtibia 15.884
rfoot -8.5389 -36.9898
rtoes 6.17213
lfemur -44.0221 -8.95866 -0.929001
ltibia 32.365
lfoot -11.7534 0.506245
ltoes -25.6129
1422
root 26.9885 16.6107 0.0367846 18.6071 7.44748 -4.84114
lowerback 11.4056 -0.337075 -2.66087
upperback 3.4059 -0.813617 -2.31121
thorax -2.83217 -0.390198 -0.792447
lowerneck -2.10049 11.7358 -2.4202
upperneck -18.7579 16.6549 2.10104
head -5.7556 8.30039 0.265378
rclavicle 1.59028e-014 -2.70347e-014
rhumerus -49.7427 -5.51441 -53.2665
rradius 104.34
rwrist 4.34425
rhand -6.35225 11.9169
rfingers 7.12502
rthumb 19.4937 -17.1259
lclavicle 1.59028e-014 -2.70347e-014
lhumerus 26.7065 2.84978 46.8765
lradius 113.635
lwrist -63.3897
lhand 15.2608 50.9225
lfingers 7.12502
lthumb 40.097 76.1192
rfemur -20.3897 19.8987 11.0146
rtibia 15.7713
rfoot -9.27338 -37.1034
rtoes 7.31711
lfemur -43.9983 -8.93612 -0.809107
ltibia 32.3911
lfoot -11.805 0.487454
ltoes -25.926
1423
root 26.992 16.6131 0.0398544 18.6493 7.56545 -4.87677
lowerback 11.4438 -0.390639 -2.55568
upperback 3.34001 -0.87707 -2.32934
thorax -2.92345 -0.420715 -0.861367
lowerneck -0.40964 11.7983 -1.89497
upperneck -19.9831 16.6743 1.24527
head -6.30691 8.28201 -0.2269
rclavicle 1.59028e-015 -1.74931e-014
rhumerus -49.7753 -5.43684 -53.3488
rradius 104.392
rwrist 4.23569
rhand -6.15233 11.959
rfingers 7.12502
rthumb 19.6859 -17.0642
lclavicle 1.59028e-015 -1.74931e-014
lhumerus 27.2322 2.65085 46.0895
lradius 113.622
lwrist -63.6781
lhand 14.9989 50.6905
lfingers 7.12502
lthumb 39.8506 75.9614
rfemur -20.2125 19.7795 11.1169
rtibia 15.5288
rfoot -8.84483 -37.0838
rtoes 6.43565
lfemur -44.1029 -8.93754 -0.773521
ltibia 32.4837
lfoot -11.7859 0.355223
ltoes -25.7026
1424
root 26.9986 16.6115 0.0400452 18.7524 7.62647 -4.77885
lowerback 11.4314 -0.439533 -2.57232
upperback 3.3187 -0.945133 -2.37571
thorax -2.93916 -0.453977 -0.890978
lowerneck -1.41179 11.6717 -3.08442
upperneck -18.9815 16.6152 2.47129
head -6.02617 8.2804 0.409794
rclavicle 7.95139e-016 7.95139e-015
rhumerus -49.69 -5.33176 -53.4211
rradius 104.453
rwrist 4.14139
rhand -6.31764 12.0546
rfingers 7.12502
rthumb 19.527 -16.9848
lclavicle 7.95139e-016 7.95139e-015
lhumerus 27.7785 2.42693 45.1341
lradius 113.657
lwrist -63.7393
lhand 15.1866 50.94
lfingers 7.12502
lthumb 40.0272 76.1578
rfemur -20.1957 19.7049 10.994
rtibia 15.4033
rfoot -7.93779 -37.1991
rtoes 4.90142
lfemur -44.2622 -9.07259 -0.814725
ltibia 32.5352
lfoot -11.8032 0.369327
ltoes -25.589
1425
root 27.0059 16.6137 0.0404704 18.7738 7.64116 -4.71883
lowerback 11.4549 -0.470198 -2.55801
upperback 3.37719 -0.983983 -2.41789
thorax -2.89202 -0.473582 -0.937652
lowerneck -1.02138 11.823 -3.00487
upperneck -19.0373 16.7893 2.26386
head -6.08979 8.36528 0.29703
rclavicle -1.27222e-014 -4.77083e-015
rhumerus -49.4994 -5.25525 -53.4448
rradius 104.476
rwrist 4.04465
rhand -6.66356 12.079
rfingers 7.12502
rthumb 19.1944 -16.9938
lclavicle -1.27222e-014 -4.77083e-015
lhumerus 28.3069 2.2688 43.9395
lradius 113.835
lwrist -63.6721
lhand 15.5969 51.8282
lfingers 7.12502
lthumb 40.4132 76.9283
rfemur -20.2366 19.7007 10.8996
rtibia 15.4695
rfoot -7.95597 -37.2721
rtoes 4.9643
lfemur -44.2354 -9.16106 -0.886357
ltibia 32.4804
lfoot -11.8539 0.532803
ltoes -26.6837
1426
root 27.0129 16.6202 0.046166 18.7822 7.63327 -4.60003
lowerback 11.3904 -0.505023 -2.62488
upperback 3.47562 -1.03296 -2.49033
thorax -2.75407 -0.49883 -0.96976
lowerneck -0.0180469 11.9112 -2.85284
upperneck -19.8237 16.8761 1.81571
head -6.45925 8.39723 0.0359275
rclavicle 2.14687e-014 4.77083e-015
rhumerus -49.3541 -5.20223 -53.5059
rradius 104.563
rwrist 3.95481
rhand -6.87952 12.2619
rfingers 7.12502
rthumb 18.9867 -16.8314
lclavicle 2.14687e-014 4.77083e-015
lhumerus 28.9631 2.22992 42.6573
lradius 113.885
lwrist -63.47
lhand 14.9679 52.0661
lfingers 7.12502
lthumb 39.8214 77.3458
rfemur -20.1653 19.5625 10.809
rtibia 15.5304
rfoot -8.23011 -37.1002
rtoes 5.74519
lfemur -44.1413 -9.22952 -1.05271
ltibia 32.3692
lfoot -11.8414 0.557061
ltoes -26.7378
1427
root 27.0216 16.6252 0.0593965 18.7558 7.59203 -4.28945
lowerback 11.3291 -0.543358 -2.8665
upperback 3.5308 -1.10904 -2.61686
thorax -2.66044 -0.5368 -0.956284
lowerneck 0.802983 12.022 -2.81573
upperneck -20.2018 16.9882 1.52624
head -6.69335 8.44746 -0.137503
rclavicle -2.8625e-014 6.36111e-015
rhumerus -49.324 -5.00677 -53.563
rradius 104.626
rwrist 3.85773
rhand -7.06665 12.5772
rfingers 7.12502
rthumb 18.8067 -16.5336
lclavicle -2.8625e-014 6.36111e-015
lhumerus 29.6548 2.07174 41.3223
lradius 113.776
lwrist -63.2172
lhand 14.4114 51.7203
lfingers 7.12502
lthumb 39.2974 77.1545
rfemur -19.9746 19.468 10.514
rtibia 15.5842
rfoot -8.3542 -36.9821
rtoes 6.25746
lfemur -43.9551 -9.40078 -1.4216
ltibia 32.2368
lfoot -11.8393 0.505978
ltoes -26.1099
1428
root 27.0286 16.6241 0.0672035 18.656 7.60021 -4.14381
lowerback 11.4024 -0.575931 -2.93527
upperback 3.60597 -1.16217 -2.6996
thorax -2.62226 -0.563238 -0.996368
lowerneck 0.613716 12.106 -3.21552
upperneck -19.5047 17.1097 1.92437
head -6.51085 8.51639 0.0670804
rclavicle -1.03368e-014 4.77083e-015
rhumerus -49.1538 -4.85397 -53.6784
rradius 104.536
rwrist 3.80781
rhand -7.21703 12.6358
rfingers 7.12502
rthumb 18.6621 -16.489
lclavicle -1.03368e-014 4.77083e-015
lhumerus 30.3727 1.93924 39.8927
lradius 113.612
lwrist -63.0961
lhand 13.9559 51.3101
lfingers 7.12502
lthumb 38.8679 76.8679
rfemur -19.8588 19.5426 10.3617
rtibia 15.7332
rfoot -8.72615 -37.0596
rtoes 6.49316
lfemur -43.7432 -9.5364 -1.60824
ltibia 32.0955
lfoot -11.7889 0.433763
ltoes -25.9292
1429
root 27.0364 16.6196 0.0648736 18.6036 7.65414 -4.23015
lowerback 11.5249 -0.612369 -2.70895
upperback 3.63002 -1.19298 -2.7983
thorax -2.67118 -0.577702 -1.22106
lowerneck 1.1308 12.1853 -3.17443
upperneck -19.314 17.2114 1.99807
head -6.54235 8.54832 0.0455762
rclavicle -7.15625e-015 1.59028e-014
rhumerus -49.0304 -4.7996 -53.9425
rradius 104.445
rwrist 3.85292
rhand -7.27958 12.4567
rfingers 7.12502
rthumb 18.6019 -16.6739
lclavicle -7.15625e-015 1.59028e-014
lhumerus 31.0018 1.77585 38.2897
lradius 113.456
lwrist -63.2462
lhand 13.079 50.5752
lfingers 7.12502
lthumb 38.0405 76.3634
rfemur -19.8643 19.3883 10.5005
rtibia 15.9183
rfoot -8.68869 -36.9614
rtoes 5.67531
lfemur -43.6783 -9.54227 -1.56161
ltibia 31.9764
lfoot -11.6538 0.53057
ltoes -27.2528
1430
root 27.0423 16.6192 0.0625601 18.8152 7.61012 -4.21812
lowerback 11.4349 -0.612466 -2.59538
upperback 3.46925 -1.19043 -2.99493
thorax -2.79625 -0.57493 -1.49016
lowerneck 2.62125 12.2716 -2.5512
upperneck -19.7994 17.2941 1.53509
head -6.8555 8.54158 -0.310607
rclavicle 1.43125e-014 -1.59028e-014
rhumerus -49.3044 -4.71275 -54.2288
rradius 104.524
rwrist 3.99967
rhand -7.25829 12.4502
rfingers 7.12502
rthumb 18.6224 -16.6784
lclavicle 1.43125e-014 -1.59028e-014
lhumerus 31.5665 1.46195 36.5226
lradius 113.325
lwrist -63.498
lhand 13.689 49.0632
lfingers 7.12502
lthumb 38.6162 74.6921
rfemur -20.1647 19.2779 10.4201
rtibia 16.0827
rfoot -8.45376 -36.9137
rtoes 4.86828
lfemur -43.8504 -9.46323 -1.57934
ltibia 31.8993
lfoot -11.5858 0.735407
ltoes -28.2105
1431
root 27.0472 16.6228 0.0625065 19.148 7.48271 -4.01803
lowerback 11.2223 -0.579412 -2.72673
upperback 3.29589 -1.16757 -3.22456
thorax -2.86227 -0.562444 -1.65994
lowerneck 2.3077 12.3135 -2.68875
upperneck -18.5941 17.385 2.21115
head -6.48992 8.56813 -0.0269354
rclavicle 7.95139e-015 1.11319e-014
rhumerus -49.7637 -4.72229 -54.4845
rradius 104.878
rwrist 3.99058
rhand -6.78289 12.5604
rfingers 7.12502
rthumb 19.0796 -16.5237
lclavicle 7.95139e-015 1.11319e-014
lhumerus 32.2045 1.28781 34.7097
lradius 113.111
lwrist -63.7264
lhand 14.2941 47.9808
lfingers 7.12502
lthumb 39.1868 73.447
rfemur -20.5812 19.3737 10.014
rtibia 16.1746
rfoot -8.71048 -37.0507
rtoes 5.10714
lfemur -44.1124 -9.43446 -1.74632
ltibia 31.8855
lfoot -11.5973 0.79285
ltoes -27.3853
1432
root 27.0533 16.6239 0.0624155 19.2242 7.35836 -3.82593
lowerback 11.2297 -0.539372 -2.87015
upperback 3.24599 -1.14083 -3.43565
thorax -2.91944 -0.548026 -1.80299
lowerneck -0.0666657 12.2806 -3.80322
upperneck -15.4955 17.4398 4.29256
head -5.40037 8.62598 1.01551
rclavicle 4.77083e-015 -7.95139e-015
rhumerus -50.1197 -4.75327 -54.7546
rradius 105.148
rwrist 3.78587
rhand -6.35255 12.5633
rfingers 7.12502
rthumb 19.4934 -16.4796
lclavicle 4.77083e-015 -7.95139e-015
lhumerus 32.773 1.29932 32.8971
lradius 112.821
lwrist -64.0777
lhand 11.8402 48.9648
lfingers 7.12502
lthumb 36.8695 75.0629
rfemur -20.6629 19.6028 9.66863
rtibia 16.1546
rfoot -9.25638 -37.1646
rtoes 6.24474
lfemur -44.1458 -9.46861 -1.97835
ltibia 31.9404
lfoot -11.6619 0.878086
ltoes -27.6408
